<mxfile host="65bd71144e">
    <diagram id="JqAhvTtI_QTEVZp_yPTJ" name="Page-1">
        <mxGraphModel dx="2882" dy="1070" grid="1" gridSize="10" guides="1" tooltips="1" connect="1" arrows="1" fold="1" page="1" pageScale="1" pageWidth="850" pageHeight="1100" background="#ffffff" math="0" shadow="0">
            <root>
                <mxCell id="0"/>
                <mxCell id="1" parent="0"/>
                <mxCell id="2" value="Client" style="swimlane;fontStyle=1;align=center;verticalAlign=middle;childLayout=stackLayout;horizontal=1;startSize=29;horizontalStack=0;resizeParent=1;resizeParentMax=0;resizeLast=0;collapsible=0;marginBottom=0;html=1;" parent="1" vertex="1">
                    <mxGeometry x="330" y="30" width="140" height="85" as="geometry"/>
                </mxCell>
                <mxCell id="3" value="clientName: string&lt;br&gt;email: string" style="text;html=1;strokeColor=none;fillColor=none;align=center;verticalAlign=middle;spacingLeft=4;spacingRight=4;overflow=hidden;rotatable=0;points=[[0,0.5],[1,0.5]];portConstraint=eastwest;" parent="2" vertex="1">
                    <mxGeometry y="29" width="140" height="31" as="geometry"/>
                </mxCell>
                <mxCell id="4" value="makeReservation()" style="text;html=1;strokeColor=default;fillColor=none;align=left;verticalAlign=middle;spacingLeft=4;spacingRight=4;overflow=hidden;rotatable=0;points=[[0,0.5],[1,0.5]];portConstraint=eastwest;" parent="2" vertex="1">
                    <mxGeometry y="60" width="140" height="25" as="geometry"/>
                </mxCell>
                <mxCell id="5" value="Flight" style="swimlane;fontStyle=1;align=center;verticalAlign=middle;childLayout=stackLayout;horizontal=1;startSize=29;horizontalStack=0;resizeParent=1;resizeParentMax=0;resizeLast=0;collapsible=0;marginBottom=0;html=1;" parent="1" vertex="1">
                    <mxGeometry x="40" y="280" width="140" height="90" as="geometry"/>
                </mxCell>
                <mxCell id="6" value="flightId {id}" style="text;html=1;strokeColor=none;fillColor=none;align=center;verticalAlign=middle;spacingLeft=4;spacingRight=4;overflow=hidden;rotatable=0;points=[[0,0.5],[1,0.5]];portConstraint=eastwest;" parent="5" vertex="1">
                    <mxGeometry y="29" width="140" height="25" as="geometry"/>
                </mxCell>
                <mxCell id="7" value="confirmFlight()&lt;br&gt;cancelFlight()" style="text;html=1;strokeColor=default;fillColor=none;align=left;verticalAlign=middle;spacingLeft=4;spacingRight=4;overflow=hidden;rotatable=0;points=[[0,0.5],[1,0.5]];portConstraint=eastwest;" parent="5" vertex="1">
                    <mxGeometry y="54" width="140" height="36" as="geometry"/>
                </mxCell>
                <mxCell id="8" value="Airplane&lt;br&gt;Company" style="swimlane;fontStyle=1;align=center;verticalAlign=middle;childLayout=stackLayout;horizontal=1;startSize=29;horizontalStack=0;resizeParent=1;resizeParentMax=0;resizeLast=0;collapsible=0;marginBottom=0;html=1;" parent="1" vertex="1">
                    <mxGeometry x="40" y="38" width="140" height="79" as="geometry"/>
                </mxCell>
                <mxCell id="9" value="companyId {id}" style="text;html=1;strokeColor=none;fillColor=none;align=center;verticalAlign=middle;spacingLeft=4;spacingRight=4;overflow=hidden;rotatable=0;points=[[0,0.5],[1,0.5]];portConstraint=eastwest;" parent="8" vertex="1">
                    <mxGeometry y="29" width="140" height="25" as="geometry"/>
                </mxCell>
                <mxCell id="10" value="offerFlight()" style="text;html=1;strokeColor=default;fillColor=none;align=left;verticalAlign=middle;spacingLeft=4;spacingRight=4;overflow=hidden;rotatable=0;points=[[0,0.5],[1,0.5]];portConstraint=eastwest;" parent="8" vertex="1">
                    <mxGeometry y="54" width="140" height="25" as="geometry"/>
                </mxCell>
                <mxCell id="16" value="Reservation" style="swimlane;fontStyle=1;align=center;verticalAlign=middle;childLayout=stackLayout;horizontal=1;startSize=29;horizontalStack=0;resizeParent=1;resizeParentMax=0;resizeLast=0;collapsible=0;marginBottom=0;html=1;" parent="1" vertex="1">
                    <mxGeometry x="330" y="270" width="140" height="150" as="geometry"/>
                </mxCell>
                <mxCell id="17" value="reservationId {id}&lt;br&gt;dateCreated: Date&lt;br&gt;clientName: string&lt;br&gt;passengerName: string" style="text;html=1;strokeColor=none;fillColor=none;align=center;verticalAlign=middle;spacingLeft=4;spacingRight=4;overflow=hidden;rotatable=0;points=[[0,0.5],[1,0.5]];portConstraint=eastwest;" parent="16" vertex="1">
                    <mxGeometry y="29" width="140" height="71" as="geometry"/>
                </mxCell>
                <mxCell id="18" value="confirmReservation()&lt;br&gt;cancelReservation()" style="text;html=1;strokeColor=default;fillColor=none;align=left;verticalAlign=middle;spacingLeft=4;spacingRight=4;overflow=hidden;rotatable=0;points=[[0,0.5],[1,0.5]];portConstraint=eastwest;" parent="16" vertex="1">
                    <mxGeometry y="100" width="140" height="50" as="geometry"/>
                </mxCell>
                <mxCell id="19" value="" style="endArrow=diamond;html=1;rounded=0;align=center;verticalAlign=top;endFill=1;labelBackgroundColor=none;entryX=0.384;entryY=1.051;entryDx=0;entryDy=0;entryPerimeter=0;exitX=0.384;exitY=0;exitDx=0;exitDy=0;exitPerimeter=0;" parent="1" source="16" target="4" edge="1">
                    <mxGeometry x="0.1269" y="-26" relative="1" as="geometry">
                        <mxPoint x="330" y="230" as="sourcePoint"/>
                        <mxPoint x="530" y="230" as="targetPoint"/>
                        <mxPoint as="offset"/>
                    </mxGeometry>
                </mxCell>
                <mxCell id="20" value="0, n" style="resizable=0;html=1;align=left;verticalAlign=bottom;labelBackgroundColor=none;" parent="19" connectable="0" vertex="1">
                    <mxGeometry x="-1" relative="1" as="geometry"/>
                </mxCell>
                <mxCell id="23" value="1" style="resizable=0;html=1;align=right;verticalAlign=top;labelBackgroundColor=none;" parent="19" connectable="0" vertex="1">
                    <mxGeometry x="1" relative="1" as="geometry">
                        <mxPoint x="-4" as="offset"/>
                    </mxGeometry>
                </mxCell>
                <mxCell id="26" value="Passenger" style="swimlane;fontStyle=1;align=center;verticalAlign=middle;childLayout=stackLayout;horizontal=1;startSize=29;horizontalStack=0;resizeParent=1;resizeParentMax=0;resizeLast=0;collapsible=0;marginBottom=0;html=1;" parent="1" vertex="1">
                    <mxGeometry x="650" y="310" width="140" height="95" as="geometry"/>
                </mxCell>
                <mxCell id="27" value="passengerName: string&lt;br&gt;email: string" style="text;html=1;strokeColor=none;fillColor=none;align=center;verticalAlign=middle;spacingLeft=4;spacingRight=4;overflow=hidden;rotatable=0;points=[[0,0.5],[1,0.5]];portConstraint=eastwest;" parent="26" vertex="1">
                    <mxGeometry y="29" width="140" height="41" as="geometry"/>
                </mxCell>
                <mxCell id="28" value="checkIn()" style="text;html=1;strokeColor=default;fillColor=none;align=left;verticalAlign=middle;spacingLeft=4;spacingRight=4;overflow=hidden;rotatable=0;points=[[0,0.5],[1,0.5]];portConstraint=eastwest;" parent="26" vertex="1">
                    <mxGeometry y="70" width="140" height="25" as="geometry"/>
                </mxCell>
                <mxCell id="29" value="Travel Agency" style="swimlane;fontStyle=1;align=center;verticalAlign=middle;childLayout=stackLayout;horizontal=1;startSize=29;horizontalStack=0;resizeParent=1;resizeParentMax=0;resizeLast=0;collapsible=0;marginBottom=0;html=1;" parent="1" vertex="1">
                    <mxGeometry x="50" y="421" width="140" height="79" as="geometry"/>
                </mxCell>
                <mxCell id="30" value="agencyId {id}" style="text;html=1;strokeColor=none;fillColor=none;align=center;verticalAlign=middle;spacingLeft=4;spacingRight=4;overflow=hidden;rotatable=0;points=[[0,0.5],[1,0.5]];portConstraint=eastwest;" parent="29" vertex="1">
                    <mxGeometry y="29" width="140" height="25" as="geometry"/>
                </mxCell>
                <mxCell id="31" value="offerReservation()" style="text;html=1;strokeColor=default;fillColor=none;align=left;verticalAlign=middle;spacingLeft=4;spacingRight=4;overflow=hidden;rotatable=0;points=[[0,0.5],[1,0.5]];portConstraint=eastwest;" parent="29" vertex="1">
                    <mxGeometry y="54" width="140" height="25" as="geometry"/>
                </mxCell>
                <mxCell id="32" value="" style="endArrow=none;html=1;rounded=0;align=center;verticalAlign=top;endFill=0;labelBackgroundColor=none;entryX=-0.001;entryY=0.327;entryDx=0;entryDy=0;entryPerimeter=0;" parent="1" target="27" edge="1">
                    <mxGeometry x="0.1827" relative="1" as="geometry">
                        <mxPoint x="470" y="309" as="sourcePoint"/>
                        <mxPoint x="550" y="269.635" as="targetPoint"/>
                        <mxPoint as="offset"/>
                        <Array as="points">
                            <mxPoint x="560" y="309"/>
                            <mxPoint x="560" y="352"/>
                        </Array>
                    </mxGeometry>
                </mxCell>
                <mxCell id="33" value="1" style="resizable=0;html=1;align=left;verticalAlign=bottom;labelBackgroundColor=none;" parent="32" connectable="0" vertex="1">
                    <mxGeometry x="-1" relative="1" as="geometry"/>
                </mxCell>
                <mxCell id="34" value="1" style="resizable=0;html=1;align=right;verticalAlign=top;labelBackgroundColor=none;" parent="32" connectable="0" vertex="1">
                    <mxGeometry x="1" relative="1" as="geometry">
                        <mxPoint x="-4" as="offset"/>
                    </mxGeometry>
                </mxCell>
                <mxCell id="35" value="" style="endArrow=diamond;html=1;rounded=0;align=center;verticalAlign=top;endFill=1;labelBackgroundColor=none;entryX=0.286;entryY=1.008;entryDx=0;entryDy=0;entryPerimeter=0;exitX=0.283;exitY=0;exitDx=0;exitDy=0;exitPerimeter=0;startArrow=none;startFill=0;" parent="1" source="5" target="10" edge="1">
                    <mxGeometry x="0.1269" y="-26" relative="1" as="geometry">
                        <mxPoint x="10" y="239.72000000000003" as="sourcePoint"/>
                        <mxPoint x="10" y="79.99499999999996" as="targetPoint"/>
                        <mxPoint as="offset"/>
                    </mxGeometry>
                </mxCell>
                <mxCell id="36" value="0, n" style="resizable=0;html=1;align=left;verticalAlign=bottom;labelBackgroundColor=none;" parent="35" connectable="0" vertex="1">
                    <mxGeometry x="-1" relative="1" as="geometry"/>
                </mxCell>
                <mxCell id="37" value="1" style="resizable=0;html=1;align=right;verticalAlign=top;labelBackgroundColor=none;" parent="35" connectable="0" vertex="1">
                    <mxGeometry x="1" relative="1" as="geometry">
                        <mxPoint x="-4" as="offset"/>
                    </mxGeometry>
                </mxCell>
                <mxCell id="41" value="" style="endArrow=none;html=1;rounded=0;align=center;verticalAlign=top;endFill=0;labelBackgroundColor=none;exitX=1.003;exitY=0.408;exitDx=0;exitDy=0;exitPerimeter=0;startArrow=diamond;startFill=1;" parent="1" source="6" edge="1">
                    <mxGeometry x="-0.0679" y="5" relative="1" as="geometry">
                        <mxPoint x="230" y="359" as="sourcePoint"/>
                        <mxPoint x="330" y="319" as="targetPoint"/>
                        <mxPoint as="offset"/>
                    </mxGeometry>
                </mxCell>
                <mxCell id="42" value="1, n" style="resizable=0;html=1;align=left;verticalAlign=bottom;labelBackgroundColor=none;" parent="41" connectable="0" vertex="1">
                    <mxGeometry x="-1" relative="1" as="geometry">
                        <mxPoint y="-9" as="offset"/>
                    </mxGeometry>
                </mxCell>
                <mxCell id="43" value="1, n" style="resizable=0;html=1;align=right;verticalAlign=top;labelBackgroundColor=none;" parent="41" connectable="0" vertex="1">
                    <mxGeometry x="1" relative="1" as="geometry">
                        <mxPoint x="-4" as="offset"/>
                    </mxGeometry>
                </mxCell>
                <mxCell id="47" value="" style="endArrow=none;html=1;rounded=0;align=center;verticalAlign=top;endFill=0;labelBackgroundColor=none;entryX=0.201;entryY=1.001;entryDx=0;entryDy=0;entryPerimeter=0;exitX=1.001;exitY=0.749;exitDx=0;exitDy=0;exitPerimeter=0;startArrow=diamond;startFill=1;" parent="1" source="30" target="18" edge="1">
                    <mxGeometry x="-0.3856" y="1" relative="1" as="geometry">
                        <mxPoint x="270" y="619.72" as="sourcePoint"/>
                        <mxPoint x="270" y="459.995" as="targetPoint"/>
                        <mxPoint as="offset"/>
                        <Array as="points">
                            <mxPoint x="358" y="469"/>
                        </Array>
                    </mxGeometry>
                </mxCell>
                <mxCell id="48" value="1" style="resizable=0;html=1;align=left;verticalAlign=bottom;labelBackgroundColor=none;" parent="47" connectable="0" vertex="1">
                    <mxGeometry x="-1" relative="1" as="geometry">
                        <mxPoint x="10" as="offset"/>
                    </mxGeometry>
                </mxCell>
                <mxCell id="49" value="0,n" style="resizable=0;html=1;align=right;verticalAlign=top;labelBackgroundColor=none;" parent="47" connectable="0" vertex="1">
                    <mxGeometry x="1" relative="1" as="geometry">
                        <mxPoint x="-4" as="offset"/>
                    </mxGeometry>
                </mxCell>
                <mxCell id="50" value="User" style="swimlane;fontStyle=1;align=center;verticalAlign=middle;childLayout=stackLayout;horizontal=1;startSize=29;horizontalStack=0;resizeParent=1;resizeParentMax=0;resizeLast=0;collapsible=0;marginBottom=0;html=1;" parent="1" vertex="1">
                    <mxGeometry x="600" y="30" width="140" height="115" as="geometry"/>
                </mxCell>
                <mxCell id="51" value="userId {id}&lt;br&gt;password: string&lt;br&gt;registerDate: Date" style="text;html=1;strokeColor=none;fillColor=none;align=center;verticalAlign=middle;spacingLeft=4;spacingRight=4;overflow=hidden;rotatable=0;points=[[0,0.5],[1,0.5]];portConstraint=eastwest;" parent="50" vertex="1">
                    <mxGeometry y="29" width="140" height="61" as="geometry"/>
                </mxCell>
                <mxCell id="52" value="verifyLogin()" style="text;html=1;strokeColor=default;fillColor=none;align=left;verticalAlign=middle;spacingLeft=4;spacingRight=4;overflow=hidden;rotatable=0;points=[[0,0.5],[1,0.5]];portConstraint=eastwest;" parent="50" vertex="1">
                    <mxGeometry y="90" width="140" height="25" as="geometry"/>
                </mxCell>
                <mxCell id="59" value="" style="endArrow=block;html=1;rounded=0;align=center;verticalAlign=top;endFill=0;labelBackgroundColor=none;entryX=-0.004;entryY=0.201;entryDx=0;entryDy=0;exitX=0.996;exitY=0.378;exitDx=0;exitDy=0;startArrow=none;startFill=0;entryPerimeter=0;exitPerimeter=0;" parent="1" source="3" target="51" edge="1">
                    <mxGeometry x="0.1269" y="-26" relative="1" as="geometry">
                        <mxPoint x="590.1799999999998" y="341" as="sourcePoint"/>
                        <mxPoint x="589.9999999999998" y="139.99500000000012" as="targetPoint"/>
                        <mxPoint as="offset"/>
                    </mxGeometry>
                </mxCell>
                <mxCell id="60" value="" style="resizable=0;html=1;align=left;verticalAlign=bottom;labelBackgroundColor=none;" parent="59" connectable="0" vertex="1">
                    <mxGeometry x="-1" relative="1" as="geometry"/>
                </mxCell>
                <mxCell id="61" value="" style="resizable=0;html=1;align=right;verticalAlign=top;labelBackgroundColor=none;" parent="59" connectable="0" vertex="1">
                    <mxGeometry x="1" relative="1" as="geometry">
                        <mxPoint x="-4" as="offset"/>
                    </mxGeometry>
                </mxCell>
                <mxCell id="64" value="Reservation Details" style="swimlane;fontStyle=1;align=center;verticalAlign=middle;childLayout=stackLayout;horizontal=1;startSize=29;horizontalStack=0;resizeParent=1;resizeParentMax=0;resizeLast=0;collapsible=0;marginBottom=0;html=1;" parent="1" vertex="1">
                    <mxGeometry x="325" y="500" width="150" height="120" as="geometry"/>
                </mxCell>
                <mxCell id="65" value="reservationId {id}&lt;br&gt;departureDate: Date&lt;br&gt;departureAeroport: string&lt;br&gt;arrivalDate: Date&lt;br&gt;arrivalAeroport: string&lt;br&gt;stopOver: int" style="text;html=1;strokeColor=none;fillColor=none;align=center;verticalAlign=middle;spacingLeft=4;spacingRight=4;overflow=hidden;rotatable=0;points=[[0,0.5],[1,0.5]];portConstraint=eastwest;" parent="64" vertex="1">
                    <mxGeometry y="29" width="150" height="91" as="geometry"/>
                </mxCell>
                <mxCell id="70" value="" style="endArrow=none;html=1;rounded=0;align=center;verticalAlign=top;endFill=0;labelBackgroundColor=none;entryX=0.5;entryY=0;entryDx=0;entryDy=0;exitX=0.503;exitY=1.006;exitDx=0;exitDy=0;exitPerimeter=0;startArrow=diamond;startFill=1;" parent="1" source="18" target="64" edge="1">
                    <mxGeometry x="-0.0679" y="5" relative="1" as="geometry">
                        <mxPoint x="489.99999999999983" y="440.00000000000006" as="sourcePoint"/>
                        <mxPoint x="639.9999999999998" y="440.40400000000005" as="targetPoint"/>
                        <mxPoint as="offset"/>
                    </mxGeometry>
                </mxCell>
                <mxCell id="71" value="1" style="resizable=0;html=1;align=left;verticalAlign=bottom;labelBackgroundColor=none;" parent="70" connectable="0" vertex="1">
                    <mxGeometry x="-1" relative="1" as="geometry">
                        <mxPoint x="10" y="20" as="offset"/>
                    </mxGeometry>
                </mxCell>
                <mxCell id="72" value="1" style="resizable=0;html=1;align=right;verticalAlign=top;labelBackgroundColor=none;" parent="70" connectable="0" vertex="1">
                    <mxGeometry x="1" relative="1" as="geometry">
                        <mxPoint x="-4" y="-30" as="offset"/>
                    </mxGeometry>
                </mxCell>
                <mxCell id="74" value="Flight Details" style="swimlane;fontStyle=1;align=center;verticalAlign=middle;childLayout=stackLayout;horizontal=1;startSize=29;horizontalStack=0;resizeParent=1;resizeParentMax=0;resizeLast=0;collapsible=0;marginBottom=0;html=1;" parent="1" vertex="1">
                    <mxGeometry x="-190" y="280" width="150" height="150" as="geometry"/>
                </mxCell>
                <mxCell id="75" value="flightId {id}&lt;br&gt;departureDate: Date&lt;br&gt;departureAeroport: string&lt;br&gt;arrivalDate: Date&lt;br&gt;arrivalAeroport: string" style="text;html=1;strokeColor=none;fillColor=none;align=center;verticalAlign=middle;spacingLeft=4;spacingRight=4;overflow=hidden;rotatable=0;points=[[0,0.5],[1,0.5]];portConstraint=eastwest;" parent="74" vertex="1">
                    <mxGeometry y="29" width="150" height="91" as="geometry"/>
                </mxCell>
                <mxCell id="76" value="calcPrice()" style="text;html=1;strokeColor=default;fillColor=none;align=left;verticalAlign=middle;spacingLeft=4;spacingRight=4;overflow=hidden;rotatable=0;points=[[0,0.5],[1,0.5]];portConstraint=eastwest;" parent="74" vertex="1">
                    <mxGeometry y="120" width="150" height="30" as="geometry"/>
                </mxCell>
                <mxCell id="77" value="" style="edgeStyle=none;html=1;startArrow=none;startFill=0;endArrow=diamond;endFill=1;entryX=0;entryY=0.429;entryDx=0;entryDy=0;exitX=1;exitY=0.121;exitDx=0;exitDy=0;exitPerimeter=0;entryPerimeter=0;" parent="1" source="75" target="6" edge="1">
                    <mxGeometry relative="1" as="geometry"/>
                </mxCell>
                <mxCell id="78" value="1" style="edgeLabel;html=1;align=center;verticalAlign=middle;resizable=0;points=[];labelBackgroundColor=none;" parent="77" vertex="1" connectable="0">
                    <mxGeometry x="-0.8659" y="1" relative="1" as="geometry">
                        <mxPoint x="4" y="-13" as="offset"/>
                    </mxGeometry>
                </mxCell>
                <mxCell id="79" value="1" style="edgeLabel;html=1;align=center;verticalAlign=middle;resizable=0;points=[];labelBackgroundColor=none;" parent="77" vertex="1" connectable="0">
                    <mxGeometry x="0.8513" y="-1" relative="1" as="geometry">
                        <mxPoint y="-13" as="offset"/>
                    </mxGeometry>
                </mxCell>
                <mxCell id="66" value="calcPrice()" style="text;html=1;strokeColor=default;fillColor=none;align=left;verticalAlign=middle;spacingLeft=4;spacingRight=4;overflow=hidden;rotatable=0;points=[[0,0.5],[1,0.5]];portConstraint=eastwest;" parent="1" vertex="1">
                    <mxGeometry x="325" y="620" width="150" height="30" as="geometry"/>
                </mxCell>
                <mxCell id="56" value="" style="endArrow=block;html=1;rounded=0;align=center;verticalAlign=top;endFill=0;labelBackgroundColor=none;exitX=0.287;exitY=0;exitDx=0;exitDy=0;exitPerimeter=0;startArrow=none;startFill=0;entryX=0.64;entryY=1.009;entryDx=0;entryDy=0;entryPerimeter=0;" parent="1" source="26" target="52" edge="1">
                    <mxGeometry x="0.1269" y="-26" relative="1" as="geometry">
                        <mxPoint x="689.9999999999998" y="268.72" as="sourcePoint"/>
                        <mxPoint x="689.9999999999998" y="108.99500000000012" as="targetPoint"/>
                        <mxPoint as="offset"/>
                    </mxGeometry>
                </mxCell>
                <mxCell id="57" value="" style="resizable=0;html=1;align=left;verticalAlign=bottom;labelBackgroundColor=none;" parent="56" connectable="0" vertex="1">
                    <mxGeometry x="-1" relative="1" as="geometry"/>
                </mxCell>
                <mxCell id="58" value="" style="resizable=0;html=1;align=right;verticalAlign=top;labelBackgroundColor=none;" parent="56" connectable="0" vertex="1">
                    <mxGeometry x="1" relative="1" as="geometry">
                        <mxPoint x="-4" as="offset"/>
                    </mxGeometry>
                </mxCell>
                <mxCell id="80" value="Aeroport" style="swimlane;fontStyle=1;align=center;verticalAlign=middle;childLayout=stackLayout;horizontal=1;startSize=29;horizontalStack=0;resizeParent=1;resizeParentMax=0;resizeLast=0;collapsible=0;marginBottom=0;html=1;" vertex="1" parent="1">
                    <mxGeometry x="-190" y="530" width="150" height="80" as="geometry"/>
                </mxCell>
                <mxCell id="81" value="aeroportId {id}&lt;br&gt;cityId {id}&lt;br&gt;name: string&lt;br&gt;" style="text;html=1;strokeColor=none;fillColor=none;align=center;verticalAlign=middle;spacingLeft=4;spacingRight=4;overflow=hidden;rotatable=0;points=[[0,0.5],[1,0.5]];portConstraint=eastwest;" vertex="1" parent="80">
                    <mxGeometry y="29" width="150" height="51" as="geometry"/>
                </mxCell>
                <mxCell id="83" value="City" style="swimlane;fontStyle=1;align=center;verticalAlign=middle;childLayout=stackLayout;horizontal=1;startSize=29;horizontalStack=0;resizeParent=1;resizeParentMax=0;resizeLast=0;collapsible=0;marginBottom=0;html=1;" vertex="1" parent="1">
                    <mxGeometry x="-190" y="670" width="150" height="80" as="geometry"/>
                </mxCell>
                <mxCell id="84" value="cityId {id}&lt;br&gt;name: string" style="text;html=1;strokeColor=none;fillColor=none;align=center;verticalAlign=middle;spacingLeft=4;spacingRight=4;overflow=hidden;rotatable=0;points=[[0,0.5],[1,0.5]];portConstraint=eastwest;" vertex="1" parent="83">
                    <mxGeometry y="29" width="150" height="51" as="geometry"/>
                </mxCell>
                <mxCell id="85" value="" style="endArrow=none;html=1;rounded=0;align=center;verticalAlign=top;endFill=0;labelBackgroundColor=none;entryX=0.5;entryY=0;entryDx=0;entryDy=0;exitX=0.498;exitY=1.013;exitDx=0;exitDy=0;exitPerimeter=0;startArrow=diamond;startFill=1;" edge="1" parent="1" source="81" target="83">
                    <mxGeometry x="-0.0679" y="5" relative="1" as="geometry">
                        <mxPoint x="-9.579999999999927" y="600" as="sourcePoint"/>
                        <mxPoint x="-10" y="679.7" as="targetPoint"/>
                        <mxPoint as="offset"/>
                    </mxGeometry>
                </mxCell>
                <mxCell id="86" value="0,n" style="resizable=0;html=1;align=left;verticalAlign=bottom;labelBackgroundColor=none;" connectable="0" vertex="1" parent="85">
                    <mxGeometry x="-1" relative="1" as="geometry">
                        <mxPoint x="10" y="20" as="offset"/>
                    </mxGeometry>
                </mxCell>
                <mxCell id="87" value="1" style="resizable=0;html=1;align=right;verticalAlign=top;labelBackgroundColor=none;" connectable="0" vertex="1" parent="85">
                    <mxGeometry x="1" relative="1" as="geometry">
                        <mxPoint x="-4" y="-30" as="offset"/>
                    </mxGeometry>
                </mxCell>
                <mxCell id="89" value="" style="endArrow=none;html=1;rounded=0;align=center;verticalAlign=top;endFill=0;labelBackgroundColor=none;entryX=0;entryY=0.6;entryDx=0;entryDy=0;exitX=1;exitY=0.5;exitDx=0;exitDy=0;startArrow=none;startFill=0;entryPerimeter=0;" edge="1" parent="1" source="81" target="65">
                    <mxGeometry x="-0.0679" y="5" relative="1" as="geometry">
                        <mxPoint x="70.42000000000007" y="560" as="sourcePoint"/>
                        <mxPoint x="70" y="639.7" as="targetPoint"/>
                        <mxPoint as="offset"/>
                    </mxGeometry>
                </mxCell>
                <mxCell id="90" value="2, n&lt;br&gt;" style="resizable=0;html=1;align=left;verticalAlign=bottom;labelBackgroundColor=none;" connectable="0" vertex="1" parent="89">
                    <mxGeometry x="-1" relative="1" as="geometry">
                        <mxPoint x="10" y="20" as="offset"/>
                    </mxGeometry>
                </mxCell>
                <mxCell id="91" value="0, n" style="resizable=0;html=1;align=right;verticalAlign=top;labelBackgroundColor=none;" connectable="0" vertex="1" parent="89">
                    <mxGeometry x="1" relative="1" as="geometry">
                        <mxPoint x="-4" y="-30" as="offset"/>
                    </mxGeometry>
                </mxCell>
                <mxCell id="92" value="" style="endArrow=none;html=1;rounded=0;align=center;verticalAlign=top;endFill=0;labelBackgroundColor=none;entryX=0.472;entryY=-0.009;entryDx=0;entryDy=0;exitX=0.478;exitY=0.992;exitDx=0;exitDy=0;exitPerimeter=0;startArrow=none;startFill=0;entryPerimeter=0;" edge="1" parent="1" source="76" target="80">
                    <mxGeometry x="-0.0679" y="5" relative="1" as="geometry">
                        <mxPoint x="-114.81999999999992" y="439.99999999999994" as="sourcePoint"/>
                        <mxPoint x="-115.24" y="519.7000000000002" as="targetPoint"/>
                        <mxPoint as="offset"/>
                    </mxGeometry>
                </mxCell>
                <mxCell id="93" value="0, n" style="resizable=0;html=1;align=left;verticalAlign=bottom;labelBackgroundColor=none;" connectable="0" vertex="1" parent="92">
                    <mxGeometry x="-1" relative="1" as="geometry">
                        <mxPoint x="10" y="20" as="offset"/>
                    </mxGeometry>
                </mxCell>
                <mxCell id="94" value="2" style="resizable=0;html=1;align=right;verticalAlign=top;labelBackgroundColor=none;" connectable="0" vertex="1" parent="92">
                    <mxGeometry x="1" relative="1" as="geometry">
                        <mxPoint x="-4" y="-30" as="offset"/>
                    </mxGeometry>
                </mxCell>
            </root>
        </mxGraphModel>
    </diagram>
</mxfile>